# xmcd CD database file
#
# Track frame offsets:
#	150
#	18825
#	34650
#
# Disc length: 709 seconds
#
# Revision: 0
# Processed by: cddbd v1.5PL3 Copyright (c) Steve Scherf et al.
# Submitted via: CDex 1.50beta9
#
DISCID=1602c303
DTITLE=立花理佐 - ゴメンね 勝手に決めちゃって
DYEAR=2001
DGENRE=Rock
TTITLE0=ゴメンね 勝手に決めちゃって
TTITLE1=ゴメンね 勝手に決めちゃって(Remix)
TTITLE2=ゴメンね 勝手に決めちゃって(Instrumental)
EXTD=YEAR: 2001
EXTT0=
EXTT1=
EXTT2=
PLAYORDER=
